<svg width="24" height="24" viewBox="0 0 24 24" fill="none" xmlns="http://www.w3.org/2000/svg">
<path d="M16.9 5C16.6239 5 16.4 5.22386 16.4 5.5V6.64286C16.4 6.919 16.6239 7.14286 16.9 7.14286H19.26L11.2489 14.9459C11.0547 15.135 10.7453 15.135 10.5511 14.9459L7.94887 12.4112C7.75473 12.2221 7.44527 12.2221 7.25113 12.4112L1.36773 18.1418C1.16622 18.3381 1.16622 18.6619 1.36773 18.8582L2.19113 19.6602C2.38527 19.8493 2.69473 19.8493 2.88887 19.6602L7.25113 15.4112C7.44527 15.2221 7.75473 15.2221 7.94887 15.4112L10.5511 17.9459C10.7453 18.135 11.0547 18.135 11.2489 17.9459L20.8 8.64286V10.9286C20.8 11.2047 21.0239 11.4286 21.3 11.4286H22.5C22.7761 11.4286 23 11.2047 23 10.9286V5.5C23 5.22386 22.7761 5 22.5 5H16.9Z" fill="url(#paint0_linear_145_14251)"/>
<defs>
<linearGradient id="paint0_linear_145_14251" x1="23" y1="5" x2="0.999999" y2="22.5" gradientUnits="userSpaceOnUse">
<stop stop-color="#FFBB1C"/>
<stop offset="0.432616" stop-color="#E8486C"/>
<stop offset="1" stop-color="#476DF2"/>
</linearGradient>
</defs>
</svg>
