<svg width="24" height="24" viewBox="0 0 24 24" fill="none" xmlns="http://www.w3.org/2000/svg">
<path fill-rule="evenodd" clip-rule="evenodd" d="M4.96224 2.8501H2.84961V4.99538H4.96224V2.8501ZM8.5875 2.8501H6.47487V4.99538H8.5875V2.8501ZM12.2128 2.8501H10.1001V4.99538H12.2128V2.8501ZM15.838 2.8501H13.7254V4.99538H15.838V2.8501ZM4.96224 6.54067H2.84961V8.68596H4.96224V6.54067ZM15.838 6.54067H13.7254V8.38596H9.34382C9.06279 8.38596 8.79383 8.49964 8.59594 8.70108C8.39816 8.90244 8.2875 9.17497 8.2875 9.4586V13.9218H6.47487V16.0671H8.2875V20.5303C8.2875 20.8139 8.39815 21.0865 8.59595 21.2879C8.79383 21.4892 9.06277 21.603 9.34382 21.603H14.0254V19.4577H10.4001V10.5312H19.1633V13.2992H21.2759V9.4586C21.2759 9.17496 21.1652 8.90243 20.9675 8.70109C20.7696 8.49963 20.5006 8.38596 20.2196 8.38596H15.838V6.54067ZM4.96224 10.2312H2.84961V12.3765H4.96224V10.2312ZM22.3733 16.9444L15.5369 12.885L15.5722 20.9451L17.7014 18.8488L19.606 22.2066L21.4344 21.1319L19.5292 17.7722L22.3733 16.9444ZM4.96224 13.9218H2.84961V16.0671H4.96224V13.9218Z" fill="url(#paint0_linear_145_14232)"/>
<defs>
<linearGradient id="paint0_linear_145_14232" x1="2.84961" y1="2.8501" x2="20.9124" y2="22.2065" gradientUnits="userSpaceOnUse">
<stop stop-color="#FFBB1C"/>
<stop offset="0.5625" stop-color="#E8486C"/>
<stop offset="1" stop-color="#476DF2"/>
</linearGradient>
</defs>
</svg>
