<svg width="24" height="24" viewBox="0 0 24 24" fill="none" xmlns="http://www.w3.org/2000/svg">
<path fill-rule="evenodd" clip-rule="evenodd" d="M5.40265 9.11061C5.40513 7.14646 6.21378 5.71381 7.41249 4.75597C8.63223 3.78133 10.2917 3.27353 11.9853 3.27503C13.679 3.27653 15.3389 3.78727 16.5592 4.76309C17.7605 5.72364 18.5692 7.15782 18.5693 9.11923C18.3709 9.15529 18.1584 9.21318 17.9597 9.29639C17.6469 9.42741 16.9956 9.78665 16.9956 10.5473V16.4116C16.9956 16.7445 17.1111 17.0405 17.3151 17.2723C17.5057 17.4888 17.742 17.6144 17.9435 17.69C18.121 17.7566 18.3073 17.7975 18.4836 17.8223C18.4432 17.9966 18.3833 18.1448 18.31 18.2721C18.17 18.5151 17.9571 18.7238 17.6488 18.8986C17.0666 19.2285 16.1838 19.4149 15.0008 19.4469C14.7148 18.6379 13.9431 18.0582 13.0361 18.0582H11.7028C10.5522 18.0582 9.61945 18.991 9.61945 20.1416C9.61945 21.2922 10.5522 22.2249 11.7028 22.2249H13.0361C13.9006 22.2249 14.6422 21.6983 14.9575 20.9484C16.2807 20.9204 17.4799 20.7185 18.3884 20.2036C18.8932 19.9174 19.3167 19.5298 19.6099 19.0207C19.8348 18.63 19.9689 18.1925 20.0189 17.7157C20.7406 17.4898 21.2947 17.0116 21.6786 16.3926C22.1962 15.5582 22.3956 14.4933 22.3956 13.4655C22.3956 12.4591 22.2353 11.391 21.7332 10.5495C21.356 9.91735 20.8008 9.44165 20.0631 9.2165C20.0672 9.18481 20.0693 9.1525 20.0693 9.1197C20.0693 6.69139 19.0447 4.83 17.496 3.59159C15.9664 2.36839 13.9597 1.77677 11.9866 1.77503C10.0136 1.77328 8.00639 2.36136 6.47612 3.58413C4.92668 4.82222 3.90264 6.68559 3.90264 9.1197C3.90264 9.15767 3.90546 9.19499 3.91091 9.23145C3.19688 9.46228 2.65744 9.93102 2.28843 10.5495C1.78634 11.391 1.62598 12.4591 1.62598 13.4655C1.62598 14.4933 1.82539 15.5582 2.34297 16.3926C2.88446 17.2656 3.76447 17.8587 4.97598 17.8587C5.2505 17.8587 5.68604 17.8371 6.07809 17.69C6.27959 17.6144 6.51596 17.4888 6.70654 17.2723C6.91053 17.0405 7.02598 16.7445 7.02598 16.4116V10.5473C7.02598 9.78665 6.37477 9.42741 6.0619 9.29639C5.84649 9.20619 5.61494 9.14575 5.40265 9.11061ZM3.57657 11.318C3.27431 11.8246 3.12598 12.5781 3.12598 13.4655C3.12598 14.3316 3.29902 15.0882 3.61766 15.6019C3.9124 16.0771 4.33239 16.3587 4.97598 16.3587C5.08101 16.3587 5.19308 16.3539 5.29964 16.3408C5.39397 16.3291 5.4698 16.3127 5.52598 16.2944V10.6996C5.5135 10.6935 5.49908 10.6869 5.48252 10.68C5.40199 10.6463 5.30309 10.6179 5.20177 10.5984C5.09895 10.5786 5.01715 10.5724 4.97598 10.5724C4.25497 10.5724 3.84663 10.8654 3.57657 11.318ZM18.4956 10.6996V16.2944C18.5518 16.3127 18.6277 16.3291 18.722 16.3408C18.8285 16.3539 18.9406 16.3587 19.0456 16.3587C19.6892 16.3587 20.1092 16.0771 20.404 15.6019C20.7226 15.0882 20.8956 14.3316 20.8956 13.4655C20.8956 12.5781 20.7473 11.8246 20.445 11.318C20.175 10.8654 19.7667 10.5724 19.0456 10.5724C19.0045 10.5724 18.9227 10.5786 18.8199 10.5984C18.7185 10.6179 18.6196 10.6463 18.5391 10.68C18.5225 10.6869 18.5081 10.6935 18.4956 10.6996ZM11.1194 20.1416C11.1194 19.8194 11.3806 19.5582 11.7028 19.5582H13.0361C13.3583 19.5582 13.6194 19.8194 13.6194 20.1416C13.6194 20.4637 13.3583 20.7249 13.0361 20.7249H11.7028C11.3806 20.7249 11.1194 20.4637 11.1194 20.1416Z" fill="url(#paint0_linear_145_14276)"/>
<defs>
<linearGradient id="paint0_linear_145_14276" x1="1.62598" y1="1.77502" x2="22.3955" y2="22.2249" gradientUnits="userSpaceOnUse">
<stop stop-color="#FFBB1C"/>
<stop offset="0.515625" stop-color="#E8486C"/>
<stop offset="1" stop-color="#476DF2"/>
</linearGradient>
</defs>
</svg>
