<svg width="40" height="40" viewBox="0 0 40 40" fill="none" xmlns="http://www.w3.org/2000/svg">
<g clip-path="url(#clip0_120_67)">
<mask id="mask0_120_67" style="mask-type:luminance" maskUnits="userSpaceOnUse" x="0" y="0" width="40" height="40">
<path d="M40 0H0V40H40V0Z" fill="white"/>
</mask>
<g mask="url(#mask0_120_67)">
<path d="M19.0315 27.9806L15.8338 24.7829C15.0829 24.032 13.8656 24.032 13.1147 24.7829L10.1045 27.793" stroke="#161723" stroke-width="1.5" stroke-miterlimit="10" stroke-linecap="round" stroke-linejoin="round"/>
<path d="M21.9823 18.6034C22.1233 17.1909 21.0925 15.9317 19.6801 15.7907C18.2677 15.6498 17.0084 16.6805 16.8674 18.0929C16.7265 19.5054 17.7572 20.7647 19.1697 20.9056C20.5821 21.0466 21.8414 20.0158 21.9823 18.6034Z" stroke="#161723" stroke-width="1.5" stroke-miterlimit="10" stroke-linecap="round" stroke-linejoin="round"/>
<path d="M32.867 24.3903L29.1041 20.6274C28.3532 19.8765 27.1359 19.8765 26.385 20.6274L14.334 32.6784" stroke="#161723" stroke-width="1.5" stroke-miterlimit="10" stroke-linecap="round" stroke-linejoin="round"/>
<path d="M33.7352 24.2197V13.6147C33.7352 12.5361 32.8607 11.6616 31.782 11.6616H11.9723C10.8936 11.6616 10.0191 12.5361 10.0191 13.6147V30.7251C10.0191 31.8038 10.8936 32.6783 11.9723 32.6783H26.9823M3.90086 15.8163H6.58406M3.90086 18.7652H6.58406M3.90086 21.7141H6.58406M3.90086 24.6629H6.58406M3.90086 27.6119H6.58406M6.10875 31.4485H4.37617C3.92141 31.4485 3.55273 31.0798 3.55273 30.6251V13.1303C3.55273 12.6755 3.92141 12.3069 4.37617 12.3069H6.10883C6.56359 12.3069 6.93227 12.6755 6.93227 13.1303V30.625C6.93219 31.0798 6.56352 31.4485 6.10875 31.4485Z" stroke="#161723" stroke-width="1.5" stroke-miterlimit="10" stroke-linecap="round" stroke-linejoin="round"/>
<path d="M27.4484 27.6514H35.9191M27.4484 31.1337H35.9191M22.3173 37.4615H2.55922C1.46945 37.4615 0.585938 36.578 0.585938 35.4882V4.51161C0.585938 3.42177 1.46945 2.53833 2.55922 2.53833H9.0132M34.9037 34.4608H28.464C27.7691 34.4608 27.2059 33.8976 27.2059 33.2027V25.6482C27.2059 24.9533 27.7691 24.3901 28.464 24.3901H34.9037C35.5985 24.3901 36.1617 24.9534 36.1617 25.6482V33.2027C36.1617 33.8976 35.5985 34.4608 34.9037 34.4608Z" stroke="#161723" stroke-width="1.5" stroke-miterlimit="10" stroke-linecap="round" stroke-linejoin="round"/>
<path d="M11.7477 2.53833H37.4408C38.5306 2.53833 39.4141 3.42185 39.4141 4.51161V35.4882C39.4141 36.578 38.5305 37.4615 37.4408 37.4615H25.0517M0.585938 7.43481H39.4141" stroke="#161723" stroke-width="1.5" stroke-miterlimit="10" stroke-linecap="round" stroke-linejoin="round"/>
</g>
</g>
<defs>
<clipPath id="clip0_120_67">
<rect width="40" height="40" fill="white"/>
</clipPath>
</defs>
</svg>
