<svg width="1126" height="200" viewBox="0 0 1126 200" fill="none" xmlns="http://www.w3.org/2000/svg">
<path fill-rule="evenodd" clip-rule="evenodd" d="M3.42656 27.4287C7.99612 22.8579 15.4058 22.857 19.9765 27.4266L72.3373 79.7746L72.3373 96.3269L49.2564 119.402C49.2563 119.402 49.2562 119.402 49.2561 119.402C36.2376 132.418 36.2377 153.816 49.2564 166.832C62.2765 179.849 83.6844 179.849 96.7046 166.832L127.023 136.52C131.594 131.951 139.004 131.951 143.573 136.522C148.143 141.093 148.142 148.503 143.571 153.072L113.252 183.384L113.252 183.385C91.0924 205.539 54.8683 205.539 32.7084 183.385L32.7081 183.384C10.5468 161.227 10.5468 125.007 32.7081 102.85L32.7084 102.85L47.5113 88.0507L3.42866 43.9788C-1.14207 39.4092 -1.143 31.9994 3.42656 27.4287Z" fill="#1570EF"/>
<path fill-rule="evenodd" clip-rule="evenodd" d="M135.295 33.1676C135.294 33.1677 135.294 33.1678 135.294 33.1679L104.977 63.4796C100.406 68.0493 92.9965 68.0486 88.4268 63.4779C83.8571 58.9073 83.8578 51.4976 88.4284 46.9279L118.746 16.6158L118.747 16.6155C140.906 -5.5385 177.13 -5.5385 199.29 16.6155L199.291 16.6158C221.452 38.7727 221.452 74.9929 199.291 97.1498L184.488 111.949L228.571 156.021C233.142 160.591 233.143 168.001 228.573 172.571C224.004 177.142 216.594 177.143 212.024 172.573L159.663 120.225L159.662 103.673L182.742 80.5981C195.761 67.5819 195.761 46.1838 182.742 33.1676L191.017 24.8917L182.742 33.1676C169.722 20.151 148.315 20.1512 135.295 33.1676Z" fill="#1570EF"/>
<path fill-rule="evenodd" clip-rule="evenodd" d="M154.425 60.57C157.839 64.0163 157.861 69.6268 154.475 73.1013L89.8864 139.379C86.5005 142.854 80.9884 142.876 77.5749 139.43C74.1613 135.984 74.1389 130.373 77.5249 126.899L142.114 60.6208C145.5 57.1464 151.012 57.1236 154.425 60.57Z" fill="#101828"/>
<circle cx="718.5" cy="46.5" r="13.5" fill="#1570EF"/>
<path d="M290.815 170.978V43.4402H343.692C350.961 43.4402 357.502 45.2015 363.317 48.7239C369.253 52.2464 373.977 57.0443 377.49 63.1175C381.003 69.1907 382.76 75.9927 382.76 83.5235C382.76 91.1758 381.003 98.0993 377.49 104.294C373.977 110.367 369.253 115.226 363.317 118.87C357.502 122.514 350.961 124.336 343.692 124.336H314.437V170.978H290.815ZM314.437 102.472H342.057C345.085 102.472 347.811 101.622 350.234 99.9213C352.778 98.2208 354.777 95.9737 356.23 93.18C357.805 90.3863 358.592 87.2282 358.592 83.7057C358.592 80.1833 357.805 77.0859 356.23 74.4137C354.777 71.62 352.778 69.4336 350.234 67.8546C347.811 66.1541 345.085 65.3038 342.057 65.3038H314.437V102.472Z" fill="#101828"/>
<path d="M442.14 172.8C432.57 172.8 424.03 170.674 416.519 166.423C409.009 162.05 403.073 156.099 398.712 148.568C394.351 141.037 392.17 132.474 392.17 122.878C392.17 113.282 394.351 104.719 398.712 97.1883C403.073 89.6575 409.009 83.7665 416.519 79.5152C424.03 75.1425 432.57 72.9561 442.14 72.9561C451.589 72.9561 460.069 75.1425 467.58 79.5152C475.09 83.7665 480.965 89.6575 485.205 97.1883C489.566 104.719 491.747 113.282 491.747 122.878C491.747 132.474 489.566 141.037 485.205 148.568C480.965 156.099 475.09 162.05 467.58 166.423C460.069 170.674 451.589 172.8 442.14 172.8ZM442.14 152.941C447.349 152.941 451.953 151.604 455.95 148.932C460.069 146.26 463.279 142.677 465.581 138.183C468.004 133.688 469.154 128.587 469.033 122.878C469.154 117.048 468.004 111.886 465.581 107.391C463.279 102.897 460.069 99.3747 455.95 96.8239C451.953 94.1517 447.349 92.8156 442.14 92.8156C436.931 92.8156 432.207 94.1517 427.967 96.8239C423.848 99.3747 420.638 102.958 418.336 107.574C416.035 112.068 414.884 117.169 414.884 122.878C414.884 128.587 416.035 133.688 418.336 138.183C420.638 142.677 423.848 146.26 427.967 148.932C432.207 151.604 436.931 152.941 442.14 152.941Z" fill="#101828"/>
<path d="M540.086 172.8C531.606 172.8 523.974 171.403 517.19 168.61C510.528 165.694 505.077 161.565 500.837 156.22L515.373 143.649C519.008 147.778 523.066 150.754 527.548 152.576C532.03 154.398 536.754 155.309 541.721 155.309C543.781 155.309 545.598 155.066 547.172 154.58C548.868 154.095 550.322 153.366 551.533 152.394C552.745 151.422 553.653 150.329 554.259 149.114C554.986 147.778 555.349 146.321 555.349 144.742C555.349 141.827 554.259 139.519 552.079 137.818C550.867 136.968 548.929 136.057 546.264 135.085C543.72 134.114 540.389 133.142 536.27 132.17C529.728 130.47 524.277 128.526 519.916 126.34C515.555 124.032 512.163 121.481 509.74 118.688C507.681 116.38 506.106 113.768 505.016 110.853C504.047 107.938 503.562 104.78 503.562 101.379C503.562 97.1276 504.471 93.3015 506.288 89.9004C508.226 86.378 510.831 83.3413 514.101 80.7906C517.372 78.2398 521.188 76.2964 525.549 74.9603C529.91 73.6242 534.453 72.9561 539.177 72.9561C544.023 72.9561 548.687 73.5634 553.169 74.7781C557.772 75.9927 562.012 77.754 565.888 80.0618C569.886 82.2482 573.278 84.9204 576.064 88.0785L563.708 101.743C561.406 99.5569 558.862 97.6134 556.076 95.9129C553.411 94.2124 550.685 92.8763 547.899 91.9046C545.113 90.8114 542.509 90.2648 540.086 90.2648C537.784 90.2648 535.725 90.5078 533.908 90.9936C532.091 91.358 530.576 91.9653 529.365 92.8156C528.154 93.6658 527.184 94.759 526.458 96.0951C525.852 97.3098 525.549 98.7674 525.549 100.468C525.67 101.925 526.034 103.322 526.639 104.658C527.366 105.873 528.335 106.905 529.547 107.756C530.879 108.606 532.878 109.578 535.543 110.671C538.208 111.764 541.661 112.797 545.9 113.768C551.836 115.347 556.803 117.109 560.801 119.052C564.798 120.995 567.948 123.242 570.25 125.793C572.551 127.98 574.187 130.53 575.156 133.446C576.125 136.361 576.609 139.579 576.609 143.102C576.609 148.811 574.974 153.912 571.703 158.406C568.554 162.901 564.193 166.423 558.62 168.974C553.169 171.525 546.991 172.8 540.086 172.8Z" fill="#101828"/>
<path d="M603.021 170.978V50.5459H625.371V170.978H603.021ZM584.123 95.7307V74.9603H646.268V95.7307H584.123Z" fill="#101828"/>
<path d="M659.836 170.978V36.1523H682.368V170.978H659.836Z" fill="#101828"/>
<path d="M707.541 170.978V74.9603H729.891V170.978H707.541Z" fill="#101828"/>
<path d="M754.598 170.978V74.9603H776.403L776.766 94.6376L772.587 96.8239C773.798 92.4512 776.161 88.5036 779.674 84.9811C783.187 81.3372 787.366 78.422 792.212 76.2357C797.057 74.0493 802.024 72.9561 807.112 72.9561C814.38 72.9561 820.437 74.4137 825.283 77.3289C830.249 80.244 833.944 84.6167 836.367 90.447C838.911 96.2773 840.183 103.565 840.183 112.311V170.978H817.832V113.95C817.832 109.092 817.166 105.084 815.834 101.925C814.501 98.6459 812.442 96.2773 809.656 94.8198C806.869 93.2407 803.477 92.5119 799.48 92.6334C796.209 92.6334 793.181 93.18 790.394 94.2732C787.729 95.2449 785.367 96.7025 783.308 98.6459C781.37 100.468 779.795 102.593 778.583 105.023C777.493 107.452 776.948 110.124 776.948 113.039V170.978H765.864C763.683 170.978 761.624 170.978 759.686 170.978C757.868 170.978 756.172 170.978 754.598 170.978Z" fill="#101828"/>
<path d="M882.589 141.644L878.228 120.692L923.655 74.9603H953.456L882.589 141.644ZM861.693 170.978V36.1523H884.043V170.978H861.693ZM926.381 170.978L891.129 128.162L906.938 114.679L954.001 170.978H926.381Z" fill="#101828"/>
<path d="M1005.86 172.8C995.807 172.8 986.903 170.674 979.15 166.423C971.519 162.172 965.522 156.402 961.161 149.114C956.921 141.705 954.801 133.263 954.801 123.789C954.801 116.258 956.013 109.396 958.436 103.201C960.858 97.0061 964.19 91.6617 968.43 87.1675C972.791 82.5518 977.939 79.0294 983.875 76.6001C989.932 74.0493 996.534 72.7739 1003.68 72.7739C1009.98 72.7739 1015.86 73.9886 1021.31 76.4179C1026.76 78.8472 1031.48 82.1874 1035.48 86.4387C1039.48 90.5685 1042.51 95.5485 1044.57 101.379C1046.75 107.088 1047.78 113.343 1047.65 120.145L1047.47 127.98H969.883L965.704 112.675H1028.76L1025.85 115.772V111.764C1025.49 107.999 1024.27 104.719 1022.22 101.925C1020.16 99.0103 1017.49 96.7632 1014.22 95.1842C1011.07 93.4836 1007.56 92.6334 1003.68 92.6334C997.745 92.6334 992.718 93.7873 988.599 96.0951C984.602 98.403 981.573 101.743 979.514 106.116C977.454 110.367 976.425 115.712 976.425 122.149C976.425 128.344 977.697 133.749 980.241 138.365C982.906 142.98 986.6 146.564 991.325 149.114C996.17 151.544 1001.8 152.758 1008.22 152.758C1012.71 152.758 1016.82 152.03 1020.58 150.572C1024.34 149.114 1028.39 146.503 1032.75 142.738L1043.84 158.224C1040.57 161.261 1036.81 163.872 1032.57 166.059C1028.45 168.124 1024.09 169.763 1019.49 170.978C1014.89 172.193 1010.34 172.8 1005.86 172.8Z" fill="#101828"/>
<path d="M1063.82 170.978V74.9603H1085.8L1086.17 105.569L1083.08 98.6459C1084.41 93.7873 1086.71 89.4146 1089.98 85.5277C1093.25 81.6408 1097.01 78.6042 1101.25 76.4179C1105.61 74.11 1110.15 72.9561 1114.88 72.9561C1116.94 72.9561 1118.87 73.1383 1120.69 73.5027C1122.63 73.8671 1124.2 74.2922 1125.41 74.7781L1119.42 99.3747C1118.09 98.6459 1116.45 98.0386 1114.51 97.5527C1112.57 97.0669 1110.64 96.8239 1108.7 96.8239C1105.67 96.8239 1102.76 97.4313 1099.98 98.6459C1097.31 99.7391 1094.95 101.318 1092.89 103.383C1090.83 105.448 1089.19 107.877 1087.98 110.671C1086.89 113.343 1086.35 116.38 1086.35 119.781V170.978H1063.82Z" fill="#101828"/>
</svg>
