<svg width="24" height="24" viewBox="0 0 24 24" fill="none" xmlns="http://www.w3.org/2000/svg">
<path fill-rule="evenodd" clip-rule="evenodd" d="M12.5 21H20.9444C21.5271 21 22 20.524 22 19.9375C22 19.351 21.5271 18.875 20.9444 18.875H12.5C11.9173 18.875 11.4444 19.351 11.4444 19.9375C11.4444 20.524 11.9173 21 12.5 21ZM9.33333 15.6875C9.33333 15.101 8.86044 14.625 8.27778 14.625H4.05556C3.47289 14.625 3 15.101 3 15.6875V19.9375C3 20.524 3.47289 21 4.05556 21H8.27778C8.86044 21 9.33333 20.524 9.33333 19.9375V15.6875ZM5.11111 16.75V18.875H7.22222V16.75H5.11111ZM12.5 16.75H20.9444C21.5271 16.75 22 16.274 22 15.6875C22 15.101 21.5271 14.625 20.9444 14.625H12.5C11.9173 14.625 11.4444 15.101 11.4444 15.6875C11.4444 16.274 11.9173 16.75 12.5 16.75ZM22 5.0625C22 4.476 21.5271 4 20.9444 4H4.05556C3.47289 4 3 4.476 3 5.0625V11.4375C3 12.024 3.47289 12.5 4.05556 12.5H20.9444C21.5271 12.5 22 12.024 22 11.4375V5.0625ZM5.11111 6.125V10.375H19.8889V6.125H5.11111Z" fill="url(#paint0_linear_145_14238)"/>
<defs>
<linearGradient id="paint0_linear_145_14238" x1="1.6915" y1="4" x2="20.9066" y2="21" gradientUnits="userSpaceOnUse">
<stop stop-color="#FFBB1C"/>
<stop offset="0.53125" stop-color="#E8486C"/>
<stop offset="1" stop-color="#476DF2"/>
</linearGradient>
</defs>
</svg>
