<svg width="24" height="24" viewBox="0 0 24 24" fill="none" xmlns="http://www.w3.org/2000/svg">
<path d="M19.9055 10.2161C19.8284 10.0804 19.7066 9.97167 19.5583 9.90601C19.41 9.84036 19.2431 9.8213 19.0823 9.85166L14.8902 10.6806L16.1859 2.82005C16.2099 2.66926 16.1819 2.51523 16.1058 2.38047C16.0298 2.24571 15.9098 2.13727 15.7633 2.07102C15.6169 2.00476 15.4517 1.98415 15.2918 2.0122C15.132 2.04025 14.9859 2.1155 14.8749 2.22693L4.20406 12.9459C4.09414 13.0567 4.02458 13.1973 4.0054 13.3476C3.98622 13.4979 4.01842 13.6499 4.09735 13.7819C4.17522 13.915 4.29623 14.0213 4.44286 14.0855C4.58948 14.1498 4.75411 14.1686 4.91291 14.1392L9.16601 13.3103L7.80929 21.1709C7.78296 21.3226 7.80953 21.4782 7.88505 21.6147C7.96057 21.7512 8.08102 21.8611 8.2285 21.9283C8.37549 21.9952 8.5415 22.016 8.70206 21.9877C8.86262 21.9594 9.00924 21.8835 9.12028 21.7711L19.7912 11.0522C19.9023 10.9422 19.9733 10.8019 19.9938 10.6516C20.0144 10.5014 19.9834 10.3488 19.9055 10.2161ZM9.72242 19.0842L10.8581 12.4957C10.8759 12.3927 10.8695 12.2874 10.8392 12.187C10.809 12.0866 10.7557 11.9937 10.683 11.9147C10.6104 11.8357 10.5202 11.7726 10.4188 11.7297C10.3173 11.6869 10.2071 11.6654 10.0959 11.6667H9.94346L6.95562 12.2527L14.3033 4.88523L13.2209 11.4952C13.2019 11.6096 13.2128 11.7265 13.2526 11.8361C13.2924 11.9456 13.36 12.0445 13.4496 12.1241C13.539 12.2028 13.6473 12.2602 13.7654 12.2913C13.8835 12.3224 14.0079 12.3263 14.128 12.3027L17.0396 11.7311L9.72242 19.0842Z" fill="url(#paint0_linear_145_14244)"/>
<defs>
<linearGradient id="paint0_linear_145_14244" x1="4" y1="2" x2="20" y2="22" gradientUnits="userSpaceOnUse">
<stop stop-color="#FFBB1C"/>
<stop offset="0.520833" stop-color="#E8486C"/>
<stop offset="1" stop-color="#476DF2"/>
</linearGradient>
</defs>
</svg>
